<?xml version="1.0" standalone="no"?>
<!DOCTYPE svg PUBLIC "-//W3C//DTD SVG 20010904//EN"
 "http://www.w3.org/TR/2001/REC-SVG-20010904/DTD/svg10.dtd">
<svg version="1.0" xmlns="http://www.w3.org/2000/svg"
 width="3000.000000pt" height="2000.000000pt" viewBox="0 0 3000.000000 2000.000000"
 preserveAspectRatio="xMidYMid meet">

<g transform="translate(0.000000,2000.000000) scale(0.100000,-0.100000)"
fill="#000000" stroke="none">
<path d="M12680 12230 l0 -3030 475 0 475 0 0 3030 0 3030 -475 0 -475 0 0
-3030z"/>
<path d="M13850 14917 l0 -34 278 -7 c152 -3 495 -6 762 -6 267 0 495 0 508 0
22 0 22 0 22 -179 0 -193 -1 -191 56 -191 l24 0 0 225 0 225 -825 0 -825 0 0
-33z"/>
<path d="M15770 14915 l0 -35 365 0 365 0 0 -185 0 -184 35 -7 c67 -12 65 -18
65 226 l0 220 -415 0 -415 0 0 -35z"/>
<path d="M13850 14147 l0 -34 178 -7 c97 -4 449 -6 782 -6 l605 1 3 -175 2
-176 28 0 c21 0 24 -2 12 -10 -12 -8 -9 -10 13 -10 l27 0 0 225 0 225 -825 0
-825 0 0 -33z"/>
<path d="M15770 14145 l0 -35 365 0 365 0 0 -180 c0 -156 2 -180 16 -180 8 0
12 -5 9 -11 -5 -7 6 -9 31 -7 l39 3 3 223 2 222 -415 0 -415 0 0 -35z"/>
<path d="M13850 13376 c0 -34 0 -34 53 -39 28 -2 376 -5 772 -6 396 0 726 -1
733 -1 9 0 12 -43 12 -180 0 -165 1 -180 18 -180 9 0 27 -3 40 -6 l22 -6 0
226 0 226 -825 0 -825 0 0 -34z"/>
<path d="M15770 13375 l0 -35 365 0 365 0 0 -174 c0 -156 2 -175 18 -181 16
-7 15 -8 -3 -16 -14 -6 -5 -8 30 -6 l50 2 3 223 2 222 -415 0 -415 0 0 -35z"/>
<path d="M16117 13064 c-4 -4 -7 -22 -7 -41 l0 -33 141 0 140 0 -3 38 -3 37
-131 3 c-71 1 -133 -1 -137 -4z"/>
<path d="M13850 12600 l0 -40 768 0 c422 0 775 0 785 0 16 0 17 -16 17 -185
l0 -185 40 0 40 0 0 225 0 225 -825 0 -825 0 0 -40z"/>
<path d="M15770 12605 l0 -35 165 0 165 0 0 -75 0 -75 -85 0 -85 0 0 -110 0
-109 248 -3 c136 -2 253 -1 260 1 9 2 12 48 12 187 l0 184 25 0 25 0 0 -191 0
-190 48 3 47 3 3 223 2 222 -415 0 -415 0 0 -35z"/>
<path d="M17340 12396 c0 -213 -2 -245 -16 -250 -9 -3 -78 -6 -155 -6 l-139 0
0 -2601 0 -2601 358 7 c196 4 358 9 360 10 2 2 4 110 5 242 l2 238 458 3 457
2 0 -245 0 -245 725 0 725 0 0 2600 0 2600 -140 0 -140 0 0 245 0 245 -1250 0
-1250 0 0 -244z m692 -11 l-3 -185 -139 0 -140 0 0 185 0 185 143 0 142 0 -3
-185z m718 0 l0 -185 -350 0 -350 0 0 185 0 185 350 0 350 0 0 -185z m720 0
l0 -185 -350 0 -350 0 0 185 0 185 350 0 350 0 0 -185z m270 0 l0 -185 -125 0
-125 0 0 185 0 185 125 0 125 0 0 -185z m-1710 -760 l0 -355 -275 0 -275 0 0
355 0 355 275 0 275 0 0 -355z m720 0 l0 -355 -350 0 -350 0 0 355 0 355 350
0 350 0 0 -355z m720 0 l0 -355 -350 0 -350 0 0 355 0 355 350 0 350 0 0 -355z
m480 0 l0 -355 -230 0 -230 0 0 355 0 355 230 0 230 0 0 -355z m-1992 -385
l72 0 0 -340 0 -340 -275 0 -275 0 0 347 0 346 203 -6 c111 -4 235 -7 275 -7z
m1992 -125 l0 -135 -180 0 -180 0 0 -210 0 -210 -50 0 -50 0 0 340 0 339 128
4 c70 1 173 4 230 5 l102 2 0 -135z m-1200 -215 l0 -340 -345 0 -345 0 0 138
c0 75 -3 228 -7 340 l-6 202 351 0 352 0 0 -340z m720 0 l0 -340 -343 0 -344
0 -6 98 c-4 53 -7 206 -7 340 l0 242 350 0 350 0 0 -340z m-1642 -367 l202 -6
0 -339 0 -338 -275 0 -275 0 0 345 0 345 73 0 c39 0 163 -3 275 -7z m922 -193
l0 -190 -185 0 -185 0 0 -150 0 -150 -160 0 -160 0 0 340 0 340 345 0 345 0 0
-190z m720 -150 l0 -340 -140 0 -140 0 0 150 0 150 -205 0 -205 0 0 190 0 190
345 0 345 0 0 -340z m120 0 l0 -340 -45 0 -45 0 0 203 c0 112 -3 265 -7 340
l-6 137 51 0 52 0 0 -340z m-1747 -367 l187 -6 0 -149 0 -148 -25 0 -25 0 0
-190 0 -190 -250 0 -250 0 0 345 0 345 88 0 c48 0 171 -3 275 -7z m537 -153
l0 -150 -160 0 -160 0 0 150 0 150 160 0 160 0 0 -150z m1090 -190 l0 -340
-140 0 -140 0 0 340 0 340 140 0 140 0 0 -340z m120 0 l0 -340 -45 0 -45 0 0
340 0 340 45 0 45 0 0 -340z m-1747 -367 l137 -6 0 -184 0 -183 -250 0 -250 0
0 190 0 190 113 0 c63 0 175 -3 250 -7z m1627 -343 l0 -340 -140 0 -140 0 0
340 0 340 140 0 140 0 0 -340z m120 0 l0 -340 -45 0 -45 0 0 340 0 340 45 0
45 0 0 -340z m-120 -490 l0 -120 -140 0 -140 0 0 120 0 120 140 0 140 0 0
-120z m120 0 l0 -120 -45 0 -45 0 0 120 0 120 45 0 45 0 0 -120z"/>
<path d="M15873 11873 l-103 -4 0 -34 0 -35 80 0 80 0 0 -180 c0 -180 0 -180
23 -180 12 0 129 -1 260 -3 l237 -2 0 183 0 182 25 0 25 0 0 -185 0 -184 35
-7 c67 -12 65 -18 65 226 l0 220 -292 0 c-161 0 -302 2 -313 3 -11 2 -66 2
-122 0z"/>
<path d="M13850 11830 l0 -40 785 3 785 2 0 -182 c0 -168 1 -183 18 -183 9 0
27 -3 40 -6 l22 -6 0 226 0 226 -825 0 -825 0 0 -40z"/>
<path d="M14230 11630 l0 -80 -190 0 -190 0 0 -60 0 -60 263 5 c144 2 394 5
555 5 l292 0 0 135 0 135 -365 0 -365 0 0 -80z"/>
<path d="M7500 8865 l0 -2345 690 0 690 0 0 2345 0 2345 -690 0 -690 0 0
-2345z"/>
<path d="M13850 10888 l0 -217 613 4 c681 3 1000 -2 992 -16 -4 -5 5 -9 20 -9
l25 0 -2 225 -3 225 -823 3 -822 2 0 -217z"/>
<path d="M15785 11103 c-19 -4 -20 -10 -17 -226 2 -122 5 -224 8 -226 2 -2 10
1 18 8 15 13 684 10 764 -4 l42 -7 0 226 0 226 -377 1 c-208 0 -387 2 -398 3
-11 2 -29 1 -40 -1z"/>
<path d="M24500 10744 c-305 -150 -1006 -492 -1715 -836 -1127 -547 -1751
-852 -1762 -861 -10 -7 -13 -230 -13 -1053 l0 -1043 78 -3 77 -3 3 -102 3
-103 -2291 0 -2290 0 0 -130 0 -130 -410 0 -410 0 0 -225 0 -225 404 0 c371 0
404 -1 410 -17 4 -9 6 -78 5 -153 l-1 -135 398 0 399 0 3 463 2 462 1884 0
1883 0 5 -562 c3 -310 3 -566 1 -570 -5 -10 -3147 -10 -3971 -1 l-602 6 0 94
0 93 -409 0 c-261 0 -411 -4 -413 -10 -2 -5 -2 -107 0 -225 l3 -215 409 0 409
0 -1 -22 c0 -13 0 -173 1 -356 l1 -332 398 2 397 3 3 438 2 437 1884 0 1883 0
5 -537 c5 -478 4 -539 -10 -550 -13 -10 -401 -12 -1886 -8 -1029 2 -2052 7
-2273 10 l-403 5 0 -485 0 -485 398 2 397 3 3 432 2 433 1883 -3 1882 -2 6
-530 c4 -291 3 -534 -2 -539 -4 -5 -983 -7 -2288 -4 l-2281 4 0 -523 0 -523
400 0 400 0 0 480 0 480 1885 0 1885 0 0 -170 0 -170 670 0 670 0 0 325 0 325
165 0 165 0 0 -325 0 -325 210 0 210 0 0 248 c0 137 3 290 6 340 l7 92 163 0
164 0 0 -340 0 -340 210 0 210 0 0 330 0 330 170 0 170 0 0 -330 0 -330 185 0
185 0 0 4050 c0 2228 -1 4050 -2 4050 -2 0 -100 -48 -218 -106z m-150 -1134
l0 -240 -170 0 -170 0 0 240 0 240 170 0 170 0 0 -240z m-760 -790 l0 -240
-170 0 -170 0 0 194 c0 106 3 214 6 240 l7 46 163 0 164 0 0 -240z m-760 -19
l0 -238 -37 -7 c-21 -3 -95 -6 -165 -6 l-128 0 0 245 0 245 165 0 165 0 0
-239z m1520 -1 l0 -240 -170 0 -170 0 0 240 0 240 170 0 170 0 0 -240z m-2920
-425 l0 -35 -105 0 -105 0 0 35 0 35 105 0 105 0 0 -35z m360 0 l0 -35 -105 0
-105 0 0 35 0 35 105 0 105 0 0 -35z m1800 -505 l0 -240 -170 0 -170 0 0 194
c0 106 3 214 6 240 l7 46 163 0 164 0 0 -240z m-760 -20 l0 -240 -165 0 -165
0 0 240 0 240 165 0 165 0 0 -240z m1520 0 l0 -240 -170 0 -170 0 0 240 0 240
170 0 170 0 0 -240z m-2920 -390 l0 -40 -105 0 -105 0 0 40 0 40 105 0 105 0
0 -40z m360 0 l0 -40 -105 0 -105 0 0 40 0 40 105 0 105 0 0 -40z m1800 -540
l0 -240 -170 0 -170 0 0 194 c0 106 3 214 6 240 l7 46 163 0 164 0 0 -240z
m-760 -20 l0 -240 -165 0 -165 0 0 240 0 240 165 0 165 0 0 -240z m1520 0 l0
-240 -170 0 -170 0 0 240 0 240 170 0 170 0 0 -240z m-2920 -355 l0 -35 -105
0 -105 0 0 35 0 35 105 0 105 0 0 -35z m360 0 l0 -35 -105 0 -105 0 0 35 0 35
105 0 105 0 0 -35z m1800 -575 l0 -240 -170 0 -170 0 0 194 c0 106 3 214 6
240 l7 46 163 0 164 0 0 -240z m-760 -20 l0 -240 -165 0 -165 0 0 240 0 240
165 0 165 0 0 -240z m1520 0 l0 -240 -170 0 -170 0 0 240 0 240 170 0 170 0 0
-240z m-2920 -315 l0 -35 -105 0 -105 0 0 35 0 35 105 0 105 0 0 -35z m360 0
l0 -35 -105 0 -105 0 0 35 0 35 105 0 105 0 0 -35z m1800 -595 l0 -240 -170 0
-170 0 0 194 c0 106 3 214 6 240 l7 46 163 0 164 0 0 -240z m-760 -20 l0 -240
-165 0 -165 0 0 240 0 240 165 0 165 0 0 -240z m1520 6 l0 -233 -46 -7 c-26
-3 -102 -6 -170 -6 l-124 0 0 240 0 240 170 0 170 0 0 -234z m-2910 -281 l0
-35 -105 0 -105 0 0 35 0 35 105 0 105 0 0 -35z m360 0 l0 -35 -105 0 -105 0
0 35 0 35 105 0 105 0 0 -35z m1790 -635 l0 -240 -170 0 -170 0 0 203 c0 111
3 219 6 240 l7 37 163 0 164 0 0 -240z m760 -10 l0 -240 -170 0 -170 0 0 240
0 240 170 0 170 0 0 -240z m-1520 -10 l0 -240 -165 0 -165 0 0 240 0 240 165
0 165 0 0 -240z m-1380 -235 l0 -35 -105 0 -105 0 0 35 0 35 105 0 105 0 0
-35z m360 0 l0 -35 -105 0 -105 0 0 35 0 35 105 0 105 0 0 -35z m-340 -890 l0
-35 -110 0 -110 0 0 35 0 35 110 0 110 0 0 -35z m350 0 l0 -35 -105 0 -105 0
0 35 0 35 105 0 105 0 0 -35z"/>
<path d="M9220 8655 l0 -2135 170 0 170 0 0 2135 0 2135 -170 0 -170 0 0
-2135z"/>
<path d="M9697 10784 c-4 -4 -7 -965 -7 -2136 l0 -2128 175 0 175 0 -2 2133
-3 2132 -166 3 c-91 1 -168 -1 -172 -4z"/>
<path d="M10170 8655 l0 -2135 150 0 150 0 0 -100 0 -100 -30 0 -30 0 2 -2302
3 -2303 28 -3 c27 -3 27 -4 27 -83 l0 -79 -30 0 -30 0 2 -227 3 -228 48 -3 47
-3 0 -203 c0 -177 2 -205 16 -210 9 -3 222 -6 475 -6 360 0 459 3 459 13 0 6
0 1121 0 2477 0 1356 0 3627 0 5048 l0 2582 -170 0 -170 0 0 -2575 0 -2575
-65 0 -65 0 -2 2573 -3 2572 -170 0 -170 0 -3 -2572 -2 -2573 -65 0 -65 0 0
2575 0 2575 -170 0 -170 0 0 -2135z m1150 1367 c0 -16 -128 -134 -141 -130 -8
3 13 30 55 71 65 63 86 78 86 59z m-850 -318 c0 -11 -94 -114 -147 -159 -92
-80 -72 -40 32 65 90 91 115 111 115 94z m410 -304 c-28 -40 -129 -125 -138
-116 -3 4 25 39 64 77 74 72 112 92 74 39z m10 -4772 l0 -38 -120 0 -120 0 0
39 0 40 120 -2 120 -2 0 -37z m350 0 l0 -38 -120 0 -120 0 0 39 0 40 120 -2
120 -2 0 -37z m-350 -968 l0 -40 -120 0 -120 0 0 40 0 40 120 0 120 0 0 -40z
m350 0 l0 -40 -120 0 -120 0 0 40 0 40 120 0 120 0 0 -40z m-350 -962 l0 -38
-120 0 -120 0 0 39 0 40 120 -2 120 -2 0 -37z m350 0 l0 -38 -120 0 -120 0 0
39 0 40 120 -2 120 -2 0 -37z m-350 -968 l0 -40 -120 0 -120 0 0 40 0 40 120
0 120 0 0 -40z m350 0 l0 -40 -120 0 -120 0 0 40 0 40 120 0 120 0 0 -40z
m-350 -850 l0 -40 -120 0 -120 0 0 40 0 40 120 0 120 0 0 -40z m350 0 l0 -40
-120 0 -120 0 0 40 0 40 120 0 120 0 0 -40z"/>
<path d="M13854 10331 c-2 -2 -4 -99 -4 -214 l0 -210 408 6 c456 7 1197 -2
1185 -14 -5 -5 -139 -10 -298 -12 l-290 -2 323 -3 322 -2 0 228 0 227 -821 0
c-451 0 -823 -2 -825 -4z"/>
<path d="M15779 10329 c-12 -7 -12 -12 -10 -251 l1 -198 33 1 c30 1 30 2 7 8
-48 14 57 20 350 20 291 0 382 -5 345 -20 -13 -5 0 -8 38 -8 l57 -1 -2 225 -3
225 -403 3 c-222 1 -408 -1 -413 -4z"/>
<path d="M13850 9888 c0 -5 138 -7 308 -6 308 2 273 6 -106 10 -111 2 -202 0
-202 -4z"/>
<path d="M13850 9380 l0 -180 680 0 680 0 0 -35 c0 -20 6 -37 13 -40 6 -2 72
-5 145 -7 l132 -4 0 223 0 223 -825 0 -825 0 0 -180z"/>
<path d="M15770 9336 l0 -225 38 7 c53 9 590 9 700 -1 l92 -9 0 226 0 226
-415 0 -415 0 0 -224z"/>
<path d="M12177 8872 c-1 -4 -1 -71 1 -149 l3 -141 97 -4 c53 -2 100 -3 104
-1 4 2 6 70 5 151 l-2 147 -102 2 c-57 1 -104 -1 -106 -5z"/>
<path d="M12497 8872 c-1 -4 -1 -71 1 -149 l3 -141 97 -4 c53 -2 100 -3 104
-1 4 2 6 70 5 151 l-2 147 -102 2 c-57 1 -104 -1 -106 -5z"/>
<path d="M12816 8873 c-3 -4 -6 -70 -6 -149 l0 -142 103 -4 c56 -2 105 -3 109
-1 4 2 6 70 5 151 l-2 147 -101 2 c-56 1 -104 -1 -108 -4z"/>
<path d="M15212 8568 l3 -222 143 -3 142 -4 0 225 0 226 -145 0 -145 0 2 -222z"/>
<path d="M15769 8785 c-1 -6 -1 -1 0 -242 l1 -198 415 0 415 0 0 223 0 222
-415 0 c-228 0 -415 -2 -416 -5z"/>
<path d="M12174 8408 c3 -13 6 -80 6 -150 l0 -128 104 0 104 0 1 150 2 150
-112 0 c-111 0 -111 0 -105 -22z"/>
<path d="M12494 8408 c3 -13 6 -80 6 -150 l0 -128 104 0 104 0 1 150 2 150
-112 0 c-111 0 -111 0 -105 -22z"/>
<path d="M12810 8280 l0 -150 109 0 109 0 1 150 2 150 -111 0 -110 0 0 -150z"/>
<path d="M15210 7795 l0 -225 145 0 145 0 0 225 0 225 -145 0 -145 0 0 -225z"/>
<path d="M15766 7998 c1 -13 3 -114 3 -225 l1 -203 415 0 415 0 0 225 0 225
-418 0 -419 0 3 -22z"/>
<path d="M12178 7983 c-2 -4 -2 -72 0 -150 l3 -143 105 0 105 0 -3 148 -3 147
-102 3 c-56 1 -103 -1 -105 -5z"/>
<path d="M12490 7840 l0 -150 110 0 110 0 0 150 0 150 -110 0 -110 0 0 -150z"/>
<path d="M12810 7840 l0 -150 110 0 111 0 -3 148 -3 147 -107 3 -108 3 0 -151z"/>
<path d="M13917 7983 c-4 -3 -7 -71 -7 -150 l0 -143 105 0 105 0 0 150 0 150
-98 0 c-54 0 -102 -3 -105 -7z"/>
<path d="M14230 7840 l0 -150 105 0 105 0 0 150 0 150 -105 0 -105 0 0 -150z"/>
<path d="M14870 7840 l0 -150 105 0 105 0 0 150 0 150 -105 0 -105 0 0 -150z"/>
<path d="M12177 7544 c-4 -4 -7 -74 -7 -156 l0 -148 110 0 111 0 -3 153 -3
152 -101 3 c-55 1 -103 0 -107 -4z"/>
<path d="M12497 7544 c-4 -4 -7 -74 -7 -156 l0 -148 110 0 111 0 -3 153 -3
152 -101 3 c-55 1 -103 0 -107 -4z"/>
<path d="M12810 7395 l0 -155 110 0 111 0 -3 153 -3 152 -107 3 -108 3 0 -156z"/>
<path d="M13592 7393 l3 -148 103 -3 102 -3 0 151 0 150 -105 0 -106 0 3 -147z"/>
<path d="M13912 7393 l3 -148 103 -3 102 -3 0 151 0 150 -105 0 -106 0 3 -147z"/>
<path d="M14230 7390 l0 -150 105 0 105 0 0 150 0 150 -105 0 -105 0 0 -150z"/>
<path d="M14870 7390 l0 -150 105 0 105 0 0 150 0 150 -105 0 -105 0 0 -150z"/>
<path d="M15210 7025 l0 -225 145 0 145 0 0 225 0 225 -145 0 -145 0 0 -225z"/>
<path d="M15766 7218 c1 -18 2 -120 3 -225 l1 -193 408 0 409 0 6 113 c4 61 7
163 7 225 l0 112 -418 0 -418 0 2 -32z"/>
<path d="M12170 6950 l0 -150 110 0 110 0 0 150 0 150 -110 0 -110 0 0 -150z"/>
<path d="M12490 6950 l0 -150 110 0 110 0 0 150 0 150 -110 0 -110 0 0 -150z"/>
<path d="M12810 6950 l0 -150 110 0 110 0 0 150 0 150 -110 0 -110 0 0 -150z"/>
<path d="M13270 6950 l0 -150 105 0 105 0 0 150 0 150 -105 0 -105 0 0 -150z"/>
<path d="M13590 6950 l0 -150 105 0 105 0 0 150 0 150 -105 0 -105 0 0 -150z"/>
<path d="M13910 6950 l0 -150 105 0 105 0 0 150 0 150 -105 0 -105 0 0 -150z"/>
<path d="M14230 6950 l0 -150 105 0 105 0 0 150 0 150 -105 0 -105 0 0 -150z"/>
<path d="M14550 6950 l0 -150 105 0 105 0 0 150 0 150 -105 0 -105 0 0 -150z"/>
<path d="M14870 6950 l0 -150 105 0 105 0 0 150 0 150 -105 0 -105 0 0 -150z"/>
<path d="M12175 6647 c-3 -7 -4 -76 -3 -152 l3 -140 105 0 105 0 0 150 0 150
-103 3 c-78 2 -104 0 -107 -11z"/>
<path d="M12495 6647 c-3 -7 -4 -76 -3 -152 l3 -140 105 0 105 0 0 150 0 150
-103 3 c-78 2 -104 0 -107 -11z"/>
<path d="M12810 6505 l0 -156 108 3 107 3 0 150 0 150 -107 3 -108 3 0 -156z"/>
<path d="M13270 6505 l0 -145 105 0 105 0 0 145 0 145 -105 0 -105 0 0 -145z"/>
<path d="M13590 6505 l0 -145 105 0 105 0 0 145 0 145 -105 0 -105 0 0 -145z"/>
<path d="M13910 6505 l0 -145 105 0 105 0 0 145 0 145 -105 0 -105 0 0 -145z"/>
<path d="M14230 6505 l0 -145 105 0 105 0 0 145 0 145 -105 0 -105 0 0 -145z"/>
<path d="M14550 6505 l0 -145 105 0 105 0 0 145 0 145 -105 0 -105 0 0 -145z"/>
<path d="M14870 6505 l0 -145 105 0 105 0 0 145 0 145 -105 0 -105 0 0 -145z"/>
<path d="M5790 6415 l0 -95 380 0 380 0 0 95 0 95 -380 0 -380 0 0 -95z"/>
<path d="M15210 6255 l0 -225 145 0 145 0 0 225 0 225 -145 0 -145 0 0 -225z"/>
<path d="M17590 6168 l0 -243 92 6 c51 3 128 4 171 1 l77 -5 0 242 0 241 -170
0 -170 0 0 -242z"/>
<path d="M18210 6171 l0 -239 170 0 170 0 0 239 0 239 -170 0 -170 0 0 -239z"/>
<path d="M18827 6403 c-4 -3 -7 -111 -7 -239 l0 -232 175 0 175 0 0 239 0 239
-168 0 c-93 0 -172 -3 -175 -7z"/>
<path d="M19440 6164 c0 -170 3 -243 11 -239 5 4 84 7 174 7 l163 0 -3 27 c-2
14 -4 122 -4 239 l-1 212 -170 0 -170 0 0 -246z"/>
<path d="M20060 6167 l0 -242 88 6 c48 3 124 4 170 1 l82 -4 0 241 0 241 -170
0 -170 0 0 -243z"/>
<path d="M20680 6164 c0 -170 3 -243 11 -239 5 4 82 7 170 7 l159 0 0 239 0
239 -170 0 -170 0 0 -246z"/>
<path d="M5860 6155 l0 -35 415 0 415 0 0 35 0 35 -415 0 -415 0 0 -35z"/>
<path d="M12170 5851 l0 -150 94 -3 c51 -2 101 -2 110 0 14 3 16 23 16 153 l0
149 -110 0 -110 0 0 -149z"/>
<path d="M12490 5851 l0 -150 94 -3 c51 -2 101 -2 110 0 14 3 16 23 16 153 l0
149 -110 0 -110 0 0 -149z"/>
<path d="M12810 5851 l0 -150 94 -3 c51 -2 101 -2 110 0 14 3 16 23 16 153 l0
149 -110 0 -110 0 0 -149z"/>
<path d="M13270 5850 l0 -150 105 0 105 0 0 150 0 150 -105 0 -105 0 0 -150z"/>
<path d="M13590 5850 l0 -150 105 0 105 0 0 150 0 150 -105 0 -105 0 0 -150z"/>
<path d="M13910 5850 l0 -150 105 0 105 0 0 150 0 150 -105 0 -105 0 0 -150z"/>
<path d="M14230 5850 l0 -150 105 0 105 0 0 150 0 150 -105 0 -105 0 0 -150z"/>
<path d="M14550 5850 l0 -150 105 0 105 0 0 150 0 150 -105 0 -105 0 0 -150z"/>
<path d="M14870 5850 l0 -150 105 0 105 0 0 150 0 150 -105 0 -105 0 0 -150z"/>
<path d="M5860 5910 l0 -80 415 0 415 0 0 80 0 80 -415 0 -415 0 0 -80z"/>
<path d="M15210 5485 l0 -225 145 0 145 0 0 225 0 225 -145 0 -145 0 0 -225z"/>
<path d="M13280 5420 l0 -150 100 0 100 0 0 150 0 150 -100 0 -100 0 0 -150z"/>
<path d="M13590 5420 l0 -150 105 0 105 0 0 150 0 150 -105 0 -105 0 0 -150z"/>
<path d="M13910 5420 l0 -150 105 0 105 0 0 150 0 150 -105 0 -105 0 0 -150z"/>
<path d="M14230 5420 l0 -150 105 0 105 0 0 150 0 150 -105 0 -105 0 0 -150z"/>
<path d="M14550 5420 l0 -150 105 0 105 0 0 150 0 150 -105 0 -105 0 0 -150z"/>
<path d="M14870 5420 l0 -150 105 0 105 0 0 150 0 150 -105 0 -105 0 0 -150z"/>
<path d="M8260 5445 l0 -35 140 0 140 0 1 -202 c1 -112 1 -209 0 -215 -1 -8
11 -13 34 -13 l35 0 -2 248 -3 247 -172 3 -173 2 0 -35z"/>
<path d="M7190 5435 l0 -35 140 0 140 0 0 -215 0 -215 30 0 30 0 0 250 0 250
-170 0 -170 0 0 -35z"/>
<path d="M9380 5435 l0 -35 140 0 140 0 0 -215 0 -215 30 0 30 0 0 250 0 250
-170 0 -170 0 0 -35z"/>
<path d="M6140 5190 l0 -250 65 0 65 0 0 250 0 250 -65 0 -65 0 0 -250z"/>
<path d="M17620 4996 l0 -235 153 -3 c83 -2 160 -7 170 -12 16 -8 17 7 17 238
l0 246 -170 0 -170 0 0 -234z"/>
<path d="M18234 5198 c2 -18 4 -124 5 -235 l1 -201 153 -4 c83 -2 159 -6 167
-9 13 -3 15 28 18 239 l2 242 -174 0 -174 0 2 -32z"/>
<path d="M18850 4996 l0 -234 153 -5 c83 -3 160 -6 170 -8 16 -4 17 12 18 226
0 127 0 236 -1 243 0 9 -41 12 -170 12 l-170 0 0 -234z"/>
<path d="M19470 4995 l0 -235 138 0 c75 0 152 -4 170 -9 l32 -10 0 245 0 244
-170 0 -170 0 0 -235z"/>
<path d="M20090 4995 l0 -235 138 0 c75 0 152 -4 170 -9 l32 -10 0 245 0 244
-170 0 -170 0 0 -235z"/>
<path d="M20709 5218 c-1 -31 2 -453 4 -454 1 -1 77 -4 170 -6 l167 -4 0 238
0 238 -170 0 c-129 0 -170 -3 -171 -12z"/>
<path d="M11730 4900 l0 -250 190 0 190 0 0 250 0 250 -190 0 -190 0 0 -250z"/>
<path d="M12570 4900 l0 -250 190 0 190 0 0 250 0 250 -190 0 -190 0 0 -250z"/>
<path d="M13280 4990 l0 -150 100 0 100 0 0 150 0 150 -100 0 -100 0 0 -150z"/>
<path d="M13592 5113 l3 -28 103 -3 102 -3 0 31 0 30 -106 0 -105 0 3 -27z"/>
<path d="M13912 5113 l3 -28 103 -3 102 -3 0 31 0 30 -106 0 -105 0 3 -27z"/>
<path d="M14230 5110 l0 -30 105 0 105 0 0 30 0 30 -105 0 -105 0 0 -30z"/>
<path d="M14550 5110 l0 -30 105 0 105 0 0 30 0 30 -105 0 -105 0 0 -30z"/>
<path d="M14870 5110 l0 -30 105 0 105 0 0 30 0 30 -105 0 -105 0 0 -30z"/>
<path d="M13540 4830 l0 -40 365 0 365 0 0 40 0 40 -365 0 -365 0 0 -40z"/>
<path d="M13282 4563 l3 -148 98 -3 97 -3 0 151 0 150 -100 0 -101 0 3 -147z"/>
<path d="M13540 3244 l0 -1465 -27 3 -28 3 -3 113 -3 112 -100 0 -100 0 2
-155 1 -155 -27 -32 c-42 -49 -62 -104 -117 -323 -50 -194 -51 -205 -52 -345
-1 -144 -1 -146 31 -210 18 -36 46 -80 63 -98 16 -18 30 -35 30 -38 0 -2 -918
-4 -2039 -4 l-2039 0 10 33 c8 25 4 53 -15 130 l-25 97 132 1 c72 1 150 1 174
-1 l42 -2 0 251 0 251 -175 0 -175 0 -2 -232 -3 -232 -29 104 c-39 140 -83
254 -106 275 -18 16 -20 16 -38 -15 -28 -45 -76 -215 -118 -415 -34 -163 -36
-188 -19 -227 7 -17 -16 -18 -399 -18 -376 0 -431 3 -396 25 18 11 10 68 -30
225 -70 269 -130 430 -160 430 -29 0 -105 -255 -156 -526 -16 -83 -16 -93 -1
-122 l15 -32 -618 0 -618 0 11 30 c9 24 7 47 -11 122 -12 51 -22 96 -22 100 0
4 15 8 33 10 l32 3 0 250 0 250 -177 3 -178 2 -1 -222 -1 -223 -48 187 c-27
103 -60 228 -74 277 -14 49 -26 95 -26 100 0 8 114 11 365 11 l365 0 0 80 0
80 -394 0 -394 0 -13 38 c-14 42 -72 158 -92 185 -8 9 -24 17 -35 17 -54 0
-129 -221 -227 -660 -25 -113 -47 -209 -48 -213 -1 -5 -17 28 -36 73 -35 87
-54 99 -78 50 -36 -77 -125 -463 -116 -503 3 -12 10 -28 16 -34 7 -10 -27 -13
-165 -13 l-175 0 37 39 c85 89 121 227 102 384 -16 124 -104 471 -135 533 -56
109 -152 167 -277 168 -124 0 -221 -59 -277 -169 -31 -60 -118 -401 -135 -526
-21 -156 16 -300 99 -387 l40 -42 -559 0 c-549 0 -559 0 -548 19 17 32 12 62
-34 243 -46 176 -90 317 -121 382 -38 80 -72 29 -130 -197 -18 -73 -36 -125
-39 -117 -3 8 -24 89 -46 180 -122 492 -232 790 -290 790 -57 0 -140 -243
-235 -685 -20 -93 -39 -177 -42 -185 -3 -9 -12 5 -23 36 -25 72 -49 114 -64
114 -28 0 -76 -153 -126 -403 -21 -103 -22 -119 -5 -159 7 -17 -9 -18 -241
-20 l-249 -2 280 -7 c154 -4 304 -11 334 -14 31 -4 78 -2 111 5 48 10 69 9
136 -6 100 -22 248 -22 332 0 79 20 108 20 163 0 59 -21 196 -21 241 0 30 15
97 16 613 13 549 -2 582 -3 625 -22 38 -16 68 -19 190 -19 127 1 152 4 204 24
59 22 63 23 275 14 119 -5 274 -8 345 -6 71 1 152 -2 180 -7 88 -18 200 -20
277 -5 86 16 160 18 209 4 60 -16 143 -18 200 -3 45 11 171 13 735 8 374 -3
716 -4 760 -3 44 0 287 2 540 2 343 1 478 -2 533 -12 59 -11 81 -11 120 -1 38
11 463 14 2132 16 1977 3 2088 3 2140 -14 76 -25 291 -25 372 0 53 16 286 17
3737 17 l3681 0 77 -22 c109 -31 310 -31 398 -1 l60 21 3240 7 c1782 4 3242 9
3244 11 2 2 -530 4 -1184 4 l-1188 0 21 22 c11 13 23 35 27 49 12 48 -127 547
-171 617 -31 48 -52 22 -97 -123 -14 -44 -30 -106 -37 -138 -7 -31 -15 -55
-17 -53 -2 2 -22 75 -44 162 -85 336 -160 576 -220 701 -31 65 -45 84 -66 89
-20 5 -30 2 -44 -17 -27 -36 -82 -187 -123 -339 -42 -160 -126 -540 -126 -575
0 -13 -4 -27 -10 -30 -5 -3 -10 2 -10 13 0 23 -67 237 -86 274 l-15 28 46 0
45 0 0 155 0 155 -120 0 -120 0 0 -155 0 -155 41 0 c30 0 40 -4 36 -13 -27
-71 -62 -206 -96 -374 -39 -188 -41 -204 -27 -236 8 -19 22 -40 33 -46 13 -7
-225 -10 -839 -11 l-858 0 0 430 0 430 -197 -2 -198 -3 3 -427 4 -428 -411 0
-412 0 21 28 c35 47 35 95 1 226 -17 66 -31 123 -31 127 0 5 129 10 288 11
l287 3 3 748 2 747 -532 0 -533 0 3 -517 4 -518 -56 -225 c-80 -328 -111 -488
-102 -532 4 -21 18 -51 32 -68 l26 -30 -1959 2 c-1077 1 -1905 4 -1840 5 l117
4 0 584 0 585 1885 0 1885 0 0 39 0 38 -2264 5 -2264 4 -27 32 c-40 48 -63 40
-102 -33 -58 -110 -150 -457 -232 -877 -36 -181 -37 -212 -15 -269 18 -43 82
-99 115 -99 10 0 21 -4 24 -10 4 -7 -433 -10 -1305 -10 -872 0 -1309 3 -1305
10 4 6 97 10 246 10 l239 0 0 2020 0 2020 -365 0 -365 0 0 -1466z m400 506 l0
-40 -115 0 -115 0 0 40 0 40 115 0 115 0 0 -40z m0 -770 l0 -40 -115 0 -115 0
0 40 0 40 115 0 115 0 0 -40z m0 -770 l0 -40 -115 0 -115 0 0 40 0 40 115 0
115 0 0 -40z m0 -770 l0 -40 -50 0 c-46 0 -50 2 -56 28 -3 15 -7 33 -10 40 -2
9 13 12 56 12 l60 0 0 -40z m0 -695 l0 -45 -55 0 c-30 0 -55 2 -55 5 0 20 49
75 70 78 14 2 28 5 33 6 4 0 7 -19 7 -44z m11010 -75 l55 -19 -77 -1 c-76 0
-78 0 -60 19 21 24 17 24 82 1z m500 12 c0 -5 10 -14 23 -20 18 -9 11 -11 -43
-11 l-65 -1 35 19 c41 22 50 24 50 13z m-22515 -22 c3 -5 -1 -10 -10 -10 -9 0
-13 5 -10 10 3 6 8 10 10 10 2 0 7 -4 10 -10z m13938 -7 c-13 -2 -33 -2 -45 0
-13 2 -3 4 22 4 25 0 35 -2 23 -4z"/>
<path d="M6147 4483 c-4 -3 -7 -118 -7 -255 l0 -248 65 0 65 0 0 255 0 255
-58 0 c-32 0 -62 -3 -65 -7z"/>
<path d="M8260 4236 l0 -243 153 0 c83 0 162 -3 175 -7 l22 -7 0 250 0 251
-175 0 -175 0 0 -244z"/>
<path d="M7190 4440 l0 -30 140 0 140 0 0 -215 0 -215 30 0 30 0 0 245 0 245
-170 0 -170 0 0 -30z"/>
<path d="M9380 4440 l0 -30 140 0 140 0 2 -217 3 -218 28 -3 27 -3 0 250 0
251 -170 0 -170 0 0 -30z"/>
<path d="M13282 4133 l3 -148 98 -3 97 -3 0 151 0 150 -100 0 -101 0 3 -147z"/>
<path d="M14790 4000 l0 -250 175 0 175 0 0 250 0 250 -175 0 -175 0 0 -250z"/>
<path d="M15690 4000 l0 -250 180 0 180 0 0 250 0 250 -180 0 -180 0 0 -250z"/>
<path d="M11730 3960 l0 -250 190 0 190 0 0 250 0 250 -190 0 -190 0 0 -250z"/>
<path d="M12570 3960 l0 -250 190 0 190 0 0 250 0 250 -190 0 -190 0 0 -250z"/>
<path d="M17580 3821 c0 -134 4 -242 9 -245 5 -4 11 0 13 6 4 10 45 13 164 13
l159 0 0 232 0 233 -172 0 -173 0 0 -239z"/>
<path d="M18200 3813 c0 -161 4 -243 10 -233 8 12 38 15 170 15 l160 -1 0 233
0 233 -170 0 -170 0 0 -247z"/>
<path d="M18820 3828 l0 -233 170 0 170 0 0 233 0 232 -170 0 -170 0 0 -232z"/>
<path d="M19435 4038 c1 -13 3 -123 4 -245 1 -150 4 -223 12 -223 5 0 8 4 5 9
-9 14 51 20 192 17 l132 -2 0 233 0 233 -174 0 -173 0 2 -22z"/>
<path d="M20052 3818 c2 -195 6 -242 17 -246 8 -3 11 0 7 6 -9 15 47 21 187
18 l127 -3 1 211 c1 116 3 221 4 234 l2 22 -174 0 -173 0 2 -242z"/>
<path d="M20670 3815 c0 -215 2 -245 16 -245 8 0 13 4 9 9 -9 16 82 24 202 18
l113 -5 0 234 0 234 -170 0 -170 0 0 -245z"/>
<path d="M13280 3705 l0 -145 100 0 100 0 0 145 0 145 -100 0 -100 0 0 -145z"/>
<path d="M14800 3300 l0 -250 175 0 175 0 0 250 0 250 -175 0 -175 0 0 -250z"/>
<path d="M15700 3300 l0 -250 175 0 175 0 0 250 0 250 -175 0 -175 0 0 -250z"/>
<path d="M6142 3278 l3 -253 63 -3 62 -3 0 256 0 255 -65 0 -65 0 2 -252z"/>
<path d="M8260 3243 l0 -248 175 0 175 0 0 248 0 247 -175 0 -175 0 0 -247z"/>
<path d="M7184 3428 c3 -29 6 -137 6 -240 l0 -188 139 0 c145 0 192 -6 155
-21 -14 -6 -9 -8 16 -6 l35 2 3 253 2 252 -181 0 -182 0 7 -52z"/>
<path d="M9374 3428 c3 -29 6 -141 6 -248 l0 -195 172 2 173 2 3 246 2 245
-181 0 -182 0 7 -52z"/>
<path d="M13282 3143 l3 -148 98 -3 97 -3 0 151 0 150 -100 0 -101 0 3 -147z"/>
<path d="M11730 2990 l0 -250 190 0 190 0 0 250 0 250 -190 0 -190 0 0 -250z"/>
<path d="M12570 2990 l0 -250 190 0 190 0 0 250 0 250 -190 0 -190 0 0 -250z"/>
<path d="M17763 2892 l-163 -2 0 -233 0 -232 170 0 170 0 0 232 c0 127 -3 233
-7 235 -5 2 -81 2 -170 0z"/>
<path d="M18350 2892 l-135 -3 3 -227 c2 -125 4 -228 5 -229 1 -1 78 -3 170
-5 l167 -3 -2 234 -3 235 -35 0 c-19 1 -96 0 -170 -2z"/>
<path d="M18834 2891 c-2 -2 -4 -107 -4 -232 l0 -229 163 -2 c120 -2 161 -6
160 -15 -2 -7 4 -10 12 -7 13 5 15 40 13 247 l-3 240 -168 1 c-93 1 -171 -1
-173 -3z"/>
<path d="M19454 2891 c-2 -2 -4 -108 -4 -235 l0 -231 170 0 c163 0 170 1 170
20 1 11 1 116 1 233 l0 212 -167 3 c-91 1 -168 0 -170 -2z"/>
<path d="M20070 2660 l0 -235 170 0 170 0 0 235 0 235 -170 0 -170 0 0 -235z"/>
<path d="M20686 2890 c-1 -3 -1 -18 0 -35 1 -16 2 -120 3 -230 l1 -200 170 0
170 0 -2 234 -3 234 -168 1 c-93 1 -170 -1 -171 -4z"/>
<path d="M13282 2713 l3 -148 98 -3 97 -3 0 151 0 150 -100 0 -101 0 3 -147z"/>
<path d="M14804 2798 c3 -29 6 -142 6 -250 l0 -198 175 0 175 0 0 250 0 250
-181 0 -182 0 7 -52z"/>
<path d="M15710 2600 l0 -250 175 0 175 0 0 250 0 250 -175 0 -175 0 0 -250z"/>
<path d="M6147 2573 c-4 -3 -7 -118 -7 -255 l0 -248 65 0 65 0 0 255 0 255
-58 0 c-32 0 -62 -3 -65 -7z"/>
<path d="M7188 2483 c-2 -5 -2 -116 0 -248 l4 -240 174 0 174 -1 -2 246 -3
245 -172 3 c-94 1 -173 -1 -175 -5z"/>
<path d="M8260 2248 l0 -243 142 0 c79 0 158 -3 176 -7 l32 -7 0 249 0 250
-175 0 -175 0 0 -242z"/>
<path d="M9378 2483 c-2 -5 -2 -116 0 -248 l4 -240 174 0 174 0 -2 245 -3 245
-172 3 c-94 1 -173 -1 -175 -5z"/>
<path d="M13280 2290 l0 -150 100 0 100 0 0 150 0 150 -100 0 -100 0 0 -150z"/>
<path d="M11730 2025 l0 -255 190 0 190 0 -2 253 -3 252 -187 3 -188 2 0 -255z"/>
<path d="M12570 2025 l0 -255 190 0 190 0 0 255 0 255 -190 0 -190 0 0 -255z"/>
<path d="M22573 2173 l-103 -4 0 -150 0 -150 123 3 122 3 0 143 c0 125 -2 145
-17 153 -9 5 -18 8 -20 7 -2 -1 -49 -4 -105 -5z"/>
<path d="M23145 2172 c-3 -3 -5 -72 -5 -154 l0 -148 123 0 122 0 0 150 0 150
-90 1 c-49 1 -102 2 -117 3 -15 2 -30 1 -33 -2z"/>
<path d="M23864 2171 c-2 -2 -4 -71 -4 -153 l0 -148 120 0 121 0 -3 150 -3
151 -113 2 c-63 1 -116 0 -118 -2z"/>
<path d="M24603 2173 c-23 -4 -23 -7 -23 -154 l0 -149 120 0 120 0 0 150 0
150 -84 0 c-46 0 -90 2 -98 4 -7 2 -23 1 -35 -1z"/>
<path d="M14810 1900 l0 -250 175 0 175 0 0 250 0 250 -175 0 -175 0 0 -250z"/>
<path d="M15710 1900 l0 -250 180 0 180 0 -2 248 -3 247 -177 3 -178 2 0 -250z"/>
<path d="M23147 1633 c-4 -3 -7 -73 -7 -155 l0 -148 119 0 120 0 3 139 c2 76
2 146 0 155 -3 14 -20 16 -116 16 -62 0 -116 -3 -119 -7z"/>
<path d="M23867 1633 c-4 -3 -7 -73 -7 -155 l0 -148 120 0 120 0 0 155 0 155
-113 0 c-63 0 -117 -3 -120 -7z"/>
<path d="M17700 1108 l0 -448 500 0 500 0 0 445 c0 417 -1 445 -17 445 -10 0
-235 1 -501 3 l-482 2 0 -447z"/>
<path d="M18908 1541 c-2 -8 -2 -209 0 -448 l2 -433 310 0 310 0 0 448 0 447
-310 0 c-259 0 -310 -2 -312 -14z"/>
<path d="M20360 1552 c-6 -2 -10 -162 -10 -448 l0 -444 315 0 315 0 0 445 0
444 -305 3 c-168 2 -310 2 -315 0z"/>
<path d="M19730 1080 l0 -420 235 0 235 0 0 420 0 420 -235 0 -235 0 0 -420z"/>
<path d="M11730 1070 l0 -400 190 0 190 0 0 400 0 400 -190 0 -190 0 0 -400z"/>
<path d="M12580 1070 l0 -400 190 0 190 0 0 400 0 400 -190 0 -190 0 0 -400z"/>
<path d="M9880 1166 l0 -244 33 -6 c19 -4 98 -6 175 -5 l142 1 0 249 0 249
-175 0 -175 0 0 -244z"/>
<path d="M15720 1030 l0 -370 200 0 200 0 0 370 0 370 -200 0 -200 0 0 -370z"/>
<path d="M8060 1030 l0 -360 320 0 320 0 0 360 0 360 -320 0 -320 0 0 -360z"/>
<path d="M7190 1125 l0 -245 129 0 c70 0 149 -3 175 -6 l46 -7 0 252 0 251
-175 0 -175 0 0 -245z"/>
<path d="M14810 1110 l0 -250 175 0 175 0 0 250 0 250 -175 0 -175 0 0 -250z"/>
</g>
</svg>
